HIERARCHY
ROOT hip
{
  OFFSET 0 0 0
  CHANNELS 6 Xposition Yposition Zposition Zrotation Yrotation Xrotation
  JOINT abdomen
  {
    OFFSET 0 20.6881 -0.73152
    CHANNELS 3 Zrotation Xrotation Yrotation
    JOINT chest
    {
      OFFSET 0 11.7043 -0.48768
      CHANNELS 3 Zrotation Xrotation Yrotation
      JOINT neck
      {
        OFFSET 0 22.1894 -2.19456
        CHANNELS 3 Zrotation Xrotation Yrotation
        JOINT head
        {
          OFFSET -0.24384 7.07133 1.2192
          CHANNELS 3 Zrotation Xrotation Yrotation
          JOINT leftEye
          {
            OFFSET 4.14528 8.04674 8.04672
            CHANNELS 3 Zrotation Xrotation Yrotation
            End Site
            {
              OFFSET 1 0 0
            }
          }
          JOINT rightEye
          {
            OFFSET -3.6576 8.04674 8.04672
            CHANNELS 3 Zrotation Xrotation Yrotation
            End Site
            {
              OFFSET 1 0 0
            }
          }
        }
      }
      JOINT rCollar
      {
        OFFSET -2.68224 19.2634 -4.8768
        CHANNELS 3 Zrotation Xrotation Yrotation
        JOINT rShldr
        {
          OFFSET -8.77824 -1.95073 1.46304
          CHANNELS 3 Zrotation Xrotation Yrotation
          JOINT rForeArm
          {
            OFFSET -28.1742 -1.7115 0.48768
            CHANNELS 3 Zrotation Xrotation Yrotation
            JOINT rHand
            {
              OFFSET -22.5879 0.773209 7.07136
              CHANNELS 3 Zrotation Xrotation Yrotation
              JOINT rThumb1
              {
                OFFSET -1.2192 -0.487915 3.41376
                CHANNELS 3 Zrotation Xrotation Yrotation
                JOINT rThumb2
                {
                  OFFSET -3.37035 -0.52449 3.41376
                  CHANNELS 3 Zrotation Xrotation Yrotation
                  End Site
                  {
                    OFFSET -1.78271 -1.18214 1.43049
                  }
                }
              }
              JOINT rIndex1
              {
                OFFSET -7.75947 0.938293 5.60832
                CHANNELS 3 Zrotation Xrotation Yrotation
                JOINT rIndex2
                {
                  OFFSET -2.54057 -0.884171 1.56538
                  CHANNELS 3 Zrotation Xrotation Yrotation
                  End Site
                  {
                    OFFSET -1.62519 -0.234802 1.16502
                  }
                }
              }
              JOINT rMid1
              {
                OFFSET -8.24714 1.18213 3.41376
                CHANNELS 3 Zrotation Xrotation Yrotation
                JOINT rMid2
                {
                  OFFSET -3.10165 -0.590103 1.0647
                  CHANNELS 3 Zrotation Xrotation Yrotation
                  End Site
                  {
                    OFFSET -2.48547 -0.328903 0.83742
                  }
                }
              }
              JOINT rRing1
              {
                OFFSET -8.82822 0.546677 1.51678
                CHANNELS 3 Zrotation Xrotation Yrotation
                JOINT rRing2
                {
                  OFFSET -2.60934 -0.819778 -0.0198488
                  CHANNELS 3 Zrotation Xrotation Yrotation
                  End Site
                  {
                    OFFSET -2.33842 -0.294052 0.168128
                  }
                }
              }
              JOINT rPinky1
              {
                OFFSET -8.27202 -0.0477905 -0.4584
                CHANNELS 3 Zrotation Xrotation Yrotation
                JOINT rPinky2
                {
                  OFFSET -1.82734 -0.647385 -0.700984
                  CHANNELS 3 Zrotation Xrotation Yrotation
                  End Site
                  {
                    OFFSET -1.69225 -0.51767 -0.607171
                  }
                }
              }
            }
          }
        }
      }
      JOINT lCollar
      {
        OFFSET 2.68224 19.2634 -4.8768
        CHANNELS 3 Zrotation Xrotation Yrotation
        JOINT lShldr
        {
          OFFSET 8.77824 -1.95073 1.46304
          CHANNELS 3 Zrotation Xrotation Yrotation
          JOINT lForeArm
          {
            OFFSET 28.1742 -1.7115 0.48768
            CHANNELS 3 Zrotation Xrotation Yrotation
            JOINT lHand
            {
              OFFSET 22.5879 0.773209 7.07136
              CHANNELS 3 Zrotation Xrotation Yrotation
              JOINT lThumb1
              {
                OFFSET 1.2192 -0.487915 3.41376
                CHANNELS 3 Zrotation Xrotation Yrotation
                JOINT lThumb2
                {
                  OFFSET 3.37035 -0.52449 3.41376
                  CHANNELS 3 Zrotation Xrotation Yrotation
                  End Site
                  {
                    OFFSET 1.78271 -1.18214 1.43049
                  }
                }
              }
              JOINT lIndex1
              {
                OFFSET 7.75947 0.938293 5.60832
                CHANNELS 3 Zrotation Xrotation Yrotation
                JOINT lIndex2
                {
                  OFFSET 2.54057 -0.884171 1.56538
                  CHANNELS 3 Zrotation Xrotation Yrotation
                  End Site
                  {
                    OFFSET 1.62519 -0.234802 1.16502
                  }
                }
              }
              JOINT lMid1
              {
                OFFSET 8.24714 1.18213 3.41376
                CHANNELS 3 Zrotation Xrotation Yrotation
                JOINT lMid2
                {
                  OFFSET 3.10165 -0.590103 1.0647
                  CHANNELS 3 Zrotation Xrotation Yrotation
                  End Site
                  {
                    OFFSET 2.48547 -0.328903 0.83742
                  }
                }
              }
              JOINT lRing1
              {
                OFFSET 8.82822 0.546677 1.51678
                CHANNELS 3 Zrotation Xrotation Yrotation
                JOINT lRing2
                {
                  OFFSET 2.60934 -0.819778 -0.0198488
                  CHANNELS 3 Zrotation Xrotation Yrotation
                  End Site
                  {
                    OFFSET 2.33842 -0.294052 0.168128
                  }
                }
              }
              JOINT lPinky1
              {
                OFFSET 8.27202 -0.0477905 -0.4584
                CHANNELS 3 Zrotation Xrotation Yrotation
                JOINT lPinky2
                {
                  OFFSET 1.82734 -0.647385 -0.700984
                  CHANNELS 3 Zrotation Xrotation Yrotation
                  End Site
                  {
                    OFFSET 1.69225 -0.51767 -0.607171
                  }
                }
              }
            }
          }
        }
      }
    }
  }
  JOINT rButtock
  {
    OFFSET -8.77824 4.35084 1.2192
    CHANNELS 3 Zrotation Xrotation Yrotation
    JOINT rThigh
    {
      OFFSET 0 -1.70687 -2.19456
      CHANNELS 3 Zrotation Xrotation Yrotation
      JOINT rShin
      {
        OFFSET 0 -36.8199 0.73152
        CHANNELS 3 Zrotation Xrotation Yrotation
        JOINT rFoot
        {
          OFFSET 0.73152 -45.1104 -5.12064
          CHANNELS 3 Zrotation Xrotation Yrotation
          End Site
          {
            OFFSET -1.1221 -3.69964 12.103
          }
        }
      }
    }
  }
  JOINT lButtock
  {
    OFFSET 8.77824 4.35084 1.2192
    CHANNELS 3 Zrotation Xrotation Yrotation
    JOINT lThigh
    {
      OFFSET 0 -1.70687 -2.19456
      CHANNELS 3 Zrotation Xrotation Yrotation
      JOINT lShin
      {
        OFFSET 0 -36.8199 0.73152
        CHANNELS 3 Zrotation Xrotation Yrotation
        JOINT lFoot
        {
          OFFSET -0.73152 -45.1104 -5.12064
          CHANNELS 3 Zrotation Xrotation Yrotation
          End Site
          {
            OFFSET 1.1221 -3.69964 12.103
          }
        }
      }
    }
  }
}
MOTION
Frames:	8
Frame Time:	0.00833333
275.946 83.282 -22.7277 0.0 0.0 0.0 -2.96293 0.00183633 -0.0799171 -0.816469 0.0169096 -0.141254 4.82459e-14 0.0 8.44835e-16 1.45274e-13 3.18055e-15 2.83113e-15 -0.0 0.0 0.0 -0.0 0.0 0.0 2.38538e-14 3.35837e-17 5.46658e-16 5.08202e-13 8.44835e-16 1.11319e-14 8.69355e-12 -2.58579e-12 7.63333e-14 9.97235e-11 2.78209e-12 1.74612e-12 2.35184e-10 4.2443e-13 3.95025e-12 4.06139e-10 7.34708e-13 6.80321e-12 2.35189e-10 4.26592e-13 3.93753e-12 7.73091 5.47488 0.417314 2.35185e-10 4.24803e-13 3.94389e-12 2.90554 0.965183 0.102902 2.35195e-10 4.24902e-13 3.94548e-12 10.2786 0.731801 0.0259123 2.35174e-10 4.25797e-13 3.95025e-12 2.22167 -0.733487 -0.20892 2.39555e-14 2.98953e-17 3.47873e-16 5.02713e-13 3.66509e-16 9.1441e-15 8.72854e-12 2.63171e-12 6.99722e-14 9.96687e-11 -2.45917e-12 1.76203e-12 2.35144e-10 3.81121e-13 3.94707e-12 4.0609e-10 6.61555e-13 6.81831e-12 2.35137e-10 3.82064e-13 3.95343e-12 -7.73091 5.47488 -0.417314 2.35143e-10 3.8117e-13 3.94707e-12 -2.90554 0.965183 -0.102902 2.35131e-10 3.81766e-13 3.95025e-12 -10.2786 0.731801 -0.0259123 2.35149e-10 3.80871e-13 3.94389e-12 -2.22167 -0.733487 0.20892 -2.03217e-16 0.0 -3.88251e-19 -1.77175 -1.93398 0.0122072 -0.00867216 -2.07864 -0.0712778 -0.47817 3.99976 0.135336 2.03217e-16 0.0 3.88251e-19 -2.72759 -9.04339 0.303164 -0.00827319 10.7978 -0.214963 0.537377 -1.76719 -0.0240966
282.191 82.4767 -28.7041 -116.963 86.9736 -117.749 -2.51246 0.10757 -0.573388 -1.12142 0.700983 -0.318886 0.380909 2.55879 -0.118431 0.612798 -6.43845 -0.14831 -0.0 0.0 0.0 -0.0 0.0 0.0 2.51322e-14 -6.69529e-13 -2.05152e-14 22.6435 5.86166 0.562439 -3.58066 -1.51776 5.70557 0.00193059 0.974664 0.136908 9.77792e-11 1.07083e-10 -7.22502e-11 1.68662e-10 1.84955e-10 -1.2458e-10 9.7784e-11 1.07084e-10 -7.22584e-11 7.73091 5.47488 0.417314 9.77815e-11 1.07082e-10 -7.22537e-11 2.90554 0.965183 0.102902 9.77883e-11 1.07083e-10 -7.22523e-11 10.2786 0.731801 0.0259123 9.77717e-11 1.07085e-10 -7.22491e-11 2.22167 -0.733487 -0.20892 2.51969e-14 -6.69529e-13 -2.07264e-14 -21.962 7.7487 -0.684258 3.40373 -1.41288 -5.44764 -0.0376054 -4.30379 0.598711 4.08352e-11 -2.1183e-10 -1.53725e-10 7.27751e-11 -3.68298e-10 -2.67585e-10 4.08278e-11 -2.11829e-10 -1.53714e-10 -7.73091 5.47488 -0.417314 4.08343e-11 -2.11831e-10 -1.53725e-10 -2.90554 0.965183 -0.102902 4.0824e-11 -2.1183e-10 -1.53724e-10 -10.2786 0.731801 -0.0259123 4.08402e-11 -2.1183e-10 -1.53729e-10 -2.22167 -0.733487 0.20892 -2.03217e-16 0.0 -3.88251e-19 -0.564493 -3.7118 1.20233 0.0267419 6.24895 0.122872 -0.989222 -2.21916 -3.60184 2.03217e-16 0.0 3.88251e-19 -1.76358 -7.2911 1.50629 -0.0172501 13.5951 -0.264829 0.72013 -5.38201 1.96288
282.191 82.4768 -28.7157 -117.7 87.0023 -118.491 -2.03449 0.21982 -1.09503 -1.43901 1.42433 -0.506753 0.795048 5.26366 -0.243998 1.22321 -13.2449 -0.310681 -0.0 0.0 0.0 -0.0 0.0 0.0 2.44099e-14 -1.40048e-12 -4.49502e-14 46.4536 12.056 1.17722 -7.03924 -3.07222 11.7503 -0.00109632 2.00521 0.281801 -3.83306e-11 2.23614e-10 -1.76486e-10 -6.66744e-11 3.86211e-10 -3.04431e-10 -3.83261e-11 2.23614e-10 -1.76489e-10 7.73091 5.47488 0.417314 -3.83273e-11 2.23613e-10 -1.76486e-10 2.90554 0.965183 0.102902 -3.83242e-11 2.23614e-10 -1.76485e-10 10.2786 0.731801 0.0259123 -3.83355e-11 2.23617e-10 -1.76484e-10 2.22167 -0.733487 -0.20892 2.44368e-14 -1.40048e-12 -4.51738e-14 -44.9703 15.935 -1.45067 6.71129 -2.86393 -11.2173 0.0215048 -8.85115 1.24285 -1.65226e-10 -4.58796e-10 -3.05761e-10 -2.80772e-10 -7.97613e-10 -5.32417e-10 -1.65234e-10 -4.58794e-10 -3.05744e-10 -7.73091 5.47488 -0.417314 -1.65227e-10 -4.58797e-10 -3.05761e-10 -2.90554 0.965183 -0.102902 -1.65235e-10 -4.58796e-10 -3.05762e-10 -10.2786 0.731801 -0.0259123 -1.65221e-10 -4.58797e-10 -3.05766e-10 -2.22167 -0.733487 0.20892 -2.03217e-16 0.0 -3.88251e-19 0.792321 -5.58775 2.4673 0.0011495 15.0523 0.338222 -2.41719 -8.72556 -7.63568 2.03217e-16 0.0 3.88251e-19 -0.825045 -5.4369 2.76949 -0.0211853 16.5517 -0.319509 1.18907 -9.18655 4.09882
282.191 82.477 -28.7027 -117.015 86.962 -117.806 -1.60605 0.318937 -1.56035 -1.71859 2.06902 -0.674518 1.17471 7.67625 -0.358149 1.73333 -19.3148 -0.468493 -0.0 0.0 0.0 -0.0 0.0 0.0 2.7689e-14 -2.00865e-12 -6.26389e-14 67.5709 17.578 1.76073 -9.84791 -4.373 17.1622 -0.00819739 2.92393 0.411201 -1.7703e-10 3.20399e-10 -2.24651e-10 -3.0629e-10 5.53395e-10 -3.87347e-10 -1.77026e-10 3.20398e-10 -2.2465e-10 7.73091 5.47488 0.417314 -1.77026e-10 3.20398e-10 -2.24649e-10 2.90554 0.965183 0.102902 -1.77026e-10 3.20399e-10 -2.24648e-10 10.2786 0.731801 0.0259123 -1.77033e-10 3.20403e-10 -2.24648e-10 2.22167 -0.733487 -0.20892 2.76798e-14 -2.00865e-12 -6.2875e-14 -65.2892 23.2322 -2.2136 9.41561 -4.08562 -16.3807 0.162921 -12.9057 1.8375 -3.47782e-10 -6.36252e-10 -4.6907e-10 -5.93854e-10 -1.10622e-09 -8.1639e-10 -3.4779e-10 -6.3625e-10 -4.69049e-10 -7.73091 5.47488 -0.417314 -3.47784e-10 -6.36254e-10 -4.6907e-10 -2.90554 0.965183 -0.102902 -3.47789e-10 -6.36253e-10 -4.69073e-10 -10.2786 0.731801 -0.0259123 -3.47778e-10 -6.36253e-10 -4.69076e-10 -2.22167 -0.733487 0.20892 -2.03217e-16 0.0 -3.88251e-19 2.07305 -7.25566 3.60392 -0.0824794 22.9032 0.55244 -4.48817 -14.3914 -11.4307 2.03217e-16 0.0 3.88251e-19 -0.0565506 -3.78503 3.89205 -0.0196296 19.1894 -0.370501 1.85254 -12.5529 6.05614
282.191 82.4768 -28.7051 -117.515 86.9683 -118.305 -1.30531 0.38532 -1.88486 -1.91215 2.51713 -0.791692 1.44569 9.35826 -0.44107 2.06768 -23.5439 -0.592847 -0.0 0.0 0.0 -0.0 0.0 0.0 4.09713e-14 -2.30988e-12 -6.3462e-14 82.2148 21.4261 2.19633 -11.6574 -5.2113 20.9488 -0.0155964 3.56314 0.501419 -3.22203e-10 3.67818e-10 -1.32639e-10 -5.56604e-10 6.35399e-10 -2.27926e-10 -3.22199e-10 3.67817e-10 -1.32635e-10 7.73091 5.47488 0.417314 -3.22199e-10 3.67817e-10 -1.32635e-10 2.90554 0.965183 0.102902 -3.222e-10 3.67818e-10 -1.32635e-10 10.2786 0.731801 0.0259123 -3.22204e-10 3.67823e-10 -1.32635e-10 2.22167 -0.733487 -0.20892 4.09306e-14 -2.30987e-12 -6.37105e-14 -79.3193 28.3199 -2.81588 11.1687 -4.87961 -19.9925 0.313562 -15.7335 2.2691 -4.71576e-10 -6.39932e-10 -6.60563e-10 -8.05776e-10 -1.11304e-09 -1.14822e-09 -4.71584e-10 -6.39931e-10 -6.60541e-10 -7.73091 5.47488 -0.417314 -4.71577e-10 -6.39935e-10 -6.60563e-10 -2.90554 0.965183 -0.102902 -4.71582e-10 -6.39934e-10 -6.60566e-10 -10.2786 0.731801 -0.0259123 -4.71572e-10 -6.39934e-10 -6.60569e-10 -2.22167 -0.733487 0.20892 -2.03217e-16 0.0 -3.88251e-19 3.00563 -8.41406 4.40117 -0.18061 28.3738 0.722433 -6.40223 -18.2219 -14.249 2.03217e-16 0.0 3.88251e-19 0.442128 -2.63776 4.67408 -0.0155577 21.0303 -0.407675 2.45579 -14.8782 7.45887
282.191 82.4767 -28.7023 -117.641 86.9657 -118.432 -1.18535 0.40587 -2.01254 -1.98945 2.68985 -0.837933 1.55482 10.018 -0.478932 2.19337 -25.1959 -0.654589 -0.0 0.0 0.0 -0.0 0.0 0.0 7.35712e-14 -2.13196e-12 -3.56135e-14 87.9234 22.9349 2.37198 -12.3328 -5.5204 22.433 -0.0190282 3.81196 0.536589 -5.14746e-10 3.35847e-10 2.87887e-10 -8.87551e-10 5.80495e-10 4.9951e-10 -5.14743e-10 3.35846e-10 2.8789e-10 7.73091 5.47488 0.417314 -5.14742e-10 3.35846e-10 2.87888e-10 2.90554 0.965183 0.102902 -5.14742e-10 3.35848e-10 2.87889e-10 10.2786 0.731801 0.0259123 -5.14747e-10 3.35852e-10 2.87888e-10 2.22167 -0.733487 -0.20892 7.35024e-14 -2.13195e-12 -3.58756e-14 -84.7758 30.3258 -3.0716 11.8272 -5.17533 -21.4094 0.385115 -16.8489 2.44408 -5.05735e-10 -3.21736e-10 -1.00392e-09 -8.62535e-10 -5.61036e-10 -1.74105e-09 -5.05742e-10 -3.21736e-10 -1.0039e-09 -7.73091 5.47488 -0.417314 -5.05736e-10 -3.21739e-10 -1.00392e-09 -2.90554 0.965183 -0.102902 -5.0574e-10 -3.21738e-10 -1.00392e-09 -10.2786 0.731801 -0.0259123 -5.0573e-10 -3.21738e-10 -1.00393e-09 -2.22167 -0.733487 0.20892 -2.03217e-16 0.0 -3.88251e-19 3.37966 -8.86605 4.7115 -0.229289 30.5127 0.794709 -7.26229 -19.6881 -15.3993 2.03217e-16 0.0 3.88251e-19 0.630968 -2.19386 4.98082 -0.0132458 21.7551 -0.423072 2.72333 -15.784 8.01287
282.191 82.4768 -28.6991 -117.755 86.9626 -118.547 -1.19487 0.393703 -1.99961 -1.98464 2.66589 -0.833439 1.54579 9.94764 -0.484002 2.18045 -25.0073 -0.665962 -0.0 0.0 0.0 -0.0 0.0 0.0 1.19716e-13 -1.61414e-12 1.24737e-14 87.2819 22.7743 2.34577 -12.2572 -5.4854 22.2657 -0.0186082 3.78192 0.53234 -7.393e-10 2.47656e-10 9.36767e-10 -1.27297e-09 4.28641e-10 1.62178e-09 -7.39298e-10 2.47657e-10 9.36768e-10 7.73091 5.47488 0.417314 -7.39297e-10 2.47657e-10 9.36764e-10 2.90554 0.965183 0.102902 -7.39295e-10 2.4766e-10 9.36764e-10 10.2786 0.731801 0.0259123 -7.39301e-10 2.47663e-10 9.36764e-10 2.22167 -0.733487 -0.20892 1.19622e-13 -1.61413e-12 1.21973e-14 -84.1715 30.1338 -3.04002 11.7567 -5.14399 -21.2526 0.377618 -16.7422 2.42715 -4.76219e-10 2.22629e-10 -1.4504e-09 -8.09107e-10 3.83648e-10 -2.51108e-09 -4.76226e-10 2.22628e-10 -1.45039e-09 -7.73091 5.47488 -0.417314 -4.7622e-10 2.22626e-10 -1.4504e-09 -2.90554 0.965183 -0.102902 -4.76224e-10 2.22627e-10 -1.4504e-09 -10.2786 0.731801 -0.0259123 -4.76213e-10 2.22628e-10 -1.45041e-09 -2.22167 -0.733487 0.20892 -2.03217e-16 0.0 -3.88251e-19 3.33824 -8.81543 4.67082 -0.223459 30.2721 0.785202 -7.1645 -19.5283 -15.2671 2.03217e-16 0.0 3.88251e-19 0.6143 -2.25142 4.94795 -0.0134957 21.6829 -0.42224 2.69097 -15.6868 7.93981
282.19 82.4765 -28.6961 -117.911 86.9595 -118.701 -1.25574 0.368563 -1.92992 -1.94666 2.56368 -0.808466 1.48862 9.58443 -0.475014 2.11346 -24.0828 -0.654937 -0.0 0.0 0.0 -0.0 0.0 0.0 1.62779e-13 -1.03945e-12 6.0561e-14 84.0998 21.9468 2.23951 -11.8811 -5.31272 21.438 -0.0166408 3.63891 0.512128 -9.15368e-10 1.53425e-10 1.46536e-09 -1.57512e-09 2.66253e-10 2.53599e-09 -9.15368e-10 1.53427e-10 1.46536e-09 7.73091 5.47488 0.417314 -9.15366e-10 1.53427e-10 1.46536e-09 2.90554 0.965183 0.102902 -9.15361e-10 1.53431e-10 1.46536e-09 10.2786 0.731801 0.0259123 -9.15371e-10 1.53432e-10 1.46536e-09 2.22167 -0.733487 -0.20892 1.62665e-13 -1.03944e-12 6.02717e-14 -81.143 29.0602 -2.89339 11.3944 -4.98173 -20.4663 0.338349 -16.1452 2.33319 -4.33022e-10 7.31716e-10 -1.75828e-09 -7.33267e-10 1.26725e-09 -3.04157e-09 -4.33028e-10 7.31714e-10 -1.75827e-09 -7.73091 5.47488 -0.417314 -4.33023e-10 7.31714e-10 -1.75827e-09 -2.90554 0.965183 -0.102902 -4.33027e-10 7.31714e-10 -1.75827e-09 -10.2786 0.731801 -0.0259123 -4.33015e-10 7.31715e-10 -1.75828e-09 -2.22167 -0.733487 0.20892 -2.03217e-16 0.0 -3.88251e-19 3.13144 -8.56388 4.49013 -0.195955 29.0798 0.743106 -6.6842 -18.7179 -14.6224 2.03217e-16 0.0 3.88251e-19 0.516086 -2.51009 4.77956 -0.0148074 21.2923 -0.414796 2.53888 -15.1883 7.61579
